<svg width="94" height="103" viewBox="0 0 94 103" fill="none" xmlns="http://www.w3.org/2000/svg">
<rect x="14" y="54.0002" width="67" height="9" rx="4.5" fill="#ED6C16"/>
<rect x="28" y="74.0002" width="39" height="9" rx="4.5" fill="#ED6C16"/>
<rect x="39" y="94.0002" width="17" height="9" rx="4.5" fill="#ED6C16"/>
<mask id="mask0_135_939" style="mask-type:alpha" maskUnits="userSpaceOnUse" x="0" y="0" width="94" height="49">
<rect width="94" height="49" fill="#D9D9D9"/>
</mask>
<g mask="url(#mask0_135_939)">
<path d="M43.9643 12.1042L54.6638 33.02L47.9923 36.4328L45.2524 31.5215C44.4827 36.4651 41.1101 41.5459 34.4387 44.9587C22.8087 50.908 9.75582 47.4049 3.55286 35.2791C-2.65009 23.1533 1.69681 10.7493 14.8594 4.016C23.8297 -0.572801 35.1941 -0.926426 41.8931 8.50008L29.4968 14.8414C27.762 13.3402 24.3374 12.7602 20.641 14.6511C15.0514 17.5105 13.0206 23.213 15.9491 28.9378C18.8776 34.6626 24.7804 36.3066 29.9192 33.6779C31.7674 32.7324 36.2468 29.8154 35.2492 24.7521L26.9099 29.0181L23.5893 22.527L43.9643 12.1042Z" fill="#30213B"/>
<path d="M69.1011 47.3678C54.4682 47.3678 44.9999 38.3045 44.9999 24.6843C44.9999 11.064 54.4682 2.00073 69.1011 2.00073C83.7341 2.00073 93.2024 11.064 93.2024 24.6843C93.2024 38.3045 83.7341 47.3678 69.1011 47.3678ZM69.1011 35.2666C74.6708 35.2666 79.2784 31.4185 79.2784 24.6843C79.2784 17.9501 74.6708 14.102 69.1011 14.102C63.5315 14.102 58.9239 17.9501 58.9239 24.6843C58.9239 31.4185 63.5315 35.2666 69.1011 35.2666Z" fill="#30213B"/>
</g>
</svg>
