<svg width="16" height="16" viewBox="0 0 16 16" fill="none" xmlns="http://www.w3.org/2000/svg">
<g id="bus_alert">
<g id="Vector">
<path d="M4 11.6667C4.55228 11.6667 5 11.219 5 10.6667C5 10.1144 4.55228 9.66667 4 9.66667C3.44772 9.66667 3 10.1144 3 10.6667C3 11.219 3.44772 11.6667 4 11.6667Z" fill="#30213B"/>
<path d="M8.66667 11.6667C9.21895 11.6667 9.66667 11.219 9.66667 10.6667C9.66667 10.1144 9.21895 9.66667 8.66667 9.66667C8.11438 9.66667 7.66667 10.1144 7.66667 10.6667C7.66667 11.219 8.11438 11.6667 8.66667 11.6667Z" fill="#30213B"/>
<path d="M2.33333 7.66667V5.66667H7.19333C7.06667 5.24667 7 4.8 7 4.33333H2.62C3.17333 3.86 4.60667 3.60667 7.05333 3.68C7.12 3.21333 7.25333 2.76667 7.44667 2.35333C1.64667 2.11333 1 3.68 1 5V11.3333C1 11.9667 1.25333 12.54 1.66667 12.96V14.3333C1.66667 14.7 1.96667 15 2.33333 15H3C3.36667 15 3.66667 14.7 3.66667 14.3333V13.6667H9V14.3333C9 14.7 9.3 15 9.66667 15H10.3333C10.7 15 11 14.7 11 14.3333V12.96C11.4133 12.54 11.6667 11.9667 11.6667 11.3333V9C10.3933 9 9.24667 8.49333 8.40667 7.66667H2.33333ZM10.3333 11C10.3333 11.7333 9.73333 12.3333 9 12.3333H3.66667C2.93333 12.3333 2.33333 11.7333 2.33333 11V9H10.3333V11Z" fill="#30213B"/>
<path d="M11.6667 1C9.82667 1 8.33333 2.49333 8.33333 4.33333C8.33333 6.17333 9.82667 7.66667 11.6667 7.66667C13.5067 7.66667 15 6.17333 15 4.33333C15 2.49333 13.5067 1 11.6667 1ZM12 6.33333H11.3333V5.66667H12V6.33333ZM12 5H11.3333V2.33333H12V5Z" fill="#30213B"/>
</g>
</g>
</svg>
