<svg width="28" height="26" viewBox="0 0 28 26" fill="black" xmlns="http://www.w3.org/2000/svg">
<path d="M19.9998 0.766663C17.6798 0.766663 15.4532 1.84666 13.9998 3.55333C12.5465 1.84666 10.3198 0.766663 7.99984 0.766663C3.89317 0.766663 0.666504 3.99333 0.666504 8.1C0.666504 13.14 5.19984 17.2467 12.0665 23.4867L13.9998 25.2333L15.9332 23.4733C22.7998 17.2467 27.3332 13.14 27.3332 8.1C27.3332 3.99333 24.1065 0.766663 19.9998 0.766663ZM14.1332 21.5L13.9998 21.6333L13.8665 21.5C7.51984 15.7533 3.33317 11.9533 3.33317 8.1C3.33317 5.43333 5.33317 3.43333 7.99984 3.43333C10.0532 3.43333 12.0532 4.75333 12.7598 6.58H15.2532C15.9465 4.75333 17.9465 3.43333 19.9998 3.43333C22.6665 3.43333 24.6665 5.43333 24.6665 8.1C24.6665 11.9533 20.4798 15.7533 14.1332 21.5Z" fill="#30233E"/>
</svg>
