<svg width="16" height="12" viewBox="0 0 16 12" fill="none" xmlns="http://www.w3.org/2000/svg">
<path d="M11.1133 6.75366C12.0266 7.37366 12.6666 8.21366 12.6666 9.33366V11.3337H15.3333V9.33366C15.3333 7.88032 12.9533 7.02033 11.1133 6.75366Z" fill="black"/>
<path d="M9.99996 6.00033C11.4733 6.00033 12.6666 4.80699 12.6666 3.33366C12.6666 1.86033 11.4733 0.666992 9.99996 0.666992C9.68663 0.666992 9.39329 0.733659 9.11329 0.826992C9.66663 1.51366 9.99996 2.38699 9.99996 3.33366C9.99996 4.28033 9.66663 5.15366 9.11329 5.84033C9.39329 5.93366 9.68663 6.00033 9.99996 6.00033Z" fill="black"/>
<path d="M5.99996 6.00033C7.47329 6.00033 8.66663 4.80699 8.66663 3.33366C8.66663 1.86033 7.47329 0.666992 5.99996 0.666992C4.52663 0.666992 3.33329 1.86033 3.33329 3.33366C3.33329 4.80699 4.52663 6.00033 5.99996 6.00033ZM5.99996 2.00033C6.73329 2.00033 7.33329 2.60033 7.33329 3.33366C7.33329 4.06699 6.73329 4.66699 5.99996 4.66699C5.26663 4.66699 4.66663 4.06699 4.66663 3.33366C4.66663 2.60033 5.26663 2.00033 5.99996 2.00033Z" fill="black"/>
<path d="M5.99996 6.66699C4.21996 6.66699 0.666626 7.56033 0.666626 9.33366V11.3337H11.3333V9.33366C11.3333 7.56033 7.77996 6.66699 5.99996 6.66699ZM9.99996 10.0003H1.99996V9.34033C2.13329 8.86032 4.19996 8.00033 5.99996 8.00033C7.79996 8.00033 9.86663 8.86032 9.99996 9.33366V10.0003Z" fill="black"/>
</svg>
