<svg width="25" height="24" viewBox="0 0 25 24" fill="none" xmlns="http://www.w3.org/2000/svg">
<g clip-path="url(#clip0_335_6686)">
<path d="M1.75439 2H6.75439V7H5.25439V4.09C3.39439 6.2 2.25439 8.97 2.25439 12C2.25439 15.03 3.39439 17.79 5.25439 19.91V17H6.75439V22H1.75439V20.5H3.77439C1.88439 18.18 0.754395 15.22 0.754395 12C0.754395 8.78 1.88439 5.82 3.77439 3.5H1.75439V2ZM20.9744 10L16.8244 10.01C16.6644 10 16.5144 10.03 16.3744 10.09L15.7844 10.35L13.9544 6.25C13.3944 4.99 11.9144 4.42 10.6544 4.98C9.39439 5.54 8.82439 7.02 9.38439 8.28L12.6844 15.73L10.8144 16.12C10.6244 16.17 9.82439 16.39 9.45439 17.33L8.75439 19.19L15.5344 21.86C16.0244 22.05 16.5844 22.04 17.0644 21.82L23.0544 19.17C23.9444 18.77 24.4244 17.79 24.1844 16.85L22.8244 11.51C22.6044 10.65 21.8544 10.04 20.9744 10ZM22.2444 17.34L16.2544 20L11.3344 18.04L15.5144 17.16L11.2144 7.46C11.1044 7.21 11.2144 6.91 11.4644 6.8C11.7144 6.69 12.0144 6.8 12.1244 7.05L14.6244 12.7L16.2344 11.99L20.8844 12L22.2444 17.34Z" fill="#30213B"/>
</g>
<defs>
<clipPath id="clip0_335_6686">
<rect x="0.5" width="24" height="24" rx="5" fill="white"/>
</clipPath>
</defs>
</svg>
