<svg width="44" height="48" viewBox="0 0 44 48" fill="none" xmlns="http://www.w3.org/2000/svg">
<rect x="6.52429" y="25.165" width="31.2233" height="4.19417" rx="2.09709" fill="#ED6C16"/>
<rect x="13.0488" y="34.4856" width="18.1747" height="4.19417" rx="2.09709" fill="#ED6C16"/>
<rect x="18.1748" y="43.8057" width="7.92232" height="4.19417" rx="2.09709" fill="#ED6C16"/>
<mask id="mask0_147_672" style="mask-type:alpha" maskUnits="userSpaceOnUse" x="0" y="0" width="44" height="23">
<rect width="43.8058" height="22.8349" fill="#D9D9D9"/>
</mask>
<g mask="url(#mask0_147_672)">
<path d="M20.4883 5.64067L25.4744 15.3879L22.3654 16.9783L21.0886 14.6895C20.7299 16.9933 19.1582 19.3611 16.0492 20.9515C10.6294 23.724 4.54649 22.0915 1.6558 16.4406C-1.2349 10.7898 0.790841 5.00928 6.92484 1.87142C11.1052 -0.267045 16.4012 -0.43184 19.5231 3.96109L13.7462 6.91626C12.9377 6.21666 11.3418 5.94641 9.6192 6.82759C7.01435 8.1601 6.06793 10.8176 7.43268 13.4854C8.79743 16.1533 11.5482 16.9195 13.943 15.6944C14.8043 15.2538 16.8918 13.8944 16.4269 11.5349L12.5406 13.5229L10.9932 10.4979L20.4883 5.64067Z" fill="#30213B"/>
<path d="M32.2026 22.0743C25.3834 22.0743 20.9709 17.8506 20.9709 11.5033C20.9709 5.15604 25.3834 0.932373 32.2026 0.932373C39.0218 0.932373 43.4342 5.15604 43.4342 11.5033C43.4342 17.8506 39.0218 22.0743 32.2026 22.0743ZM32.2026 16.4349C34.7981 16.4349 36.9454 14.6416 36.9454 11.5033C36.9454 8.36508 34.7981 6.57179 32.2026 6.57179C29.607 6.57179 27.4598 8.36508 27.4598 11.5033C27.4598 14.6416 29.607 16.4349 32.2026 16.4349Z" fill="#30213B"/>
</g>
</svg>
