<svg width="32" height="32" viewBox="0 0 32 32" fill="none" xmlns="http://www.w3.org/2000/svg">
<path d="M23.6665 18.5556C27.5478 18.5556 30.6943 15.4091 30.6943 11.5278C30.6943 7.64644 27.5478 4.5 23.6665 4.5C19.7852 4.5 16.6387 7.64644 16.6387 11.5278C16.6387 15.4091 19.7852 18.5556 23.6665 18.5556Z" fill="url(#paint0_linear_335_7391)"/>
<path fill-rule="evenodd" clip-rule="evenodd" d="M22.9588 13.7824C22.5688 13.7824 22.1865 13.8207 21.8194 13.8972C21.0088 10.698 18.1259 8.33301 14.6847 8.33301C10.6165 8.33301 7.32059 11.6317 7.32059 15.7035C7.32059 16.2239 7.37412 16.7367 7.48118 17.2342C7.42765 17.2342 7.37412 17.2266 7.32059 17.2266C4.93471 17.2266 3 19.1629 3 21.5509C3 23.9388 4.80471 25.7374 7.08353 25.8599V25.8752H22.5459V25.8522C22.6835 25.8599 22.8212 25.8752 22.9588 25.8752C26.2929 25.8752 29 23.1658 29 19.8288C29 16.4918 26.2929 13.7824 22.9588 13.7824Z" fill="url(#paint1_linear_335_7391)"/>
<defs>
<linearGradient id="paint0_linear_335_7391" x1="16.7324" y1="4.5" x2="16.7324" y2="18.3682" gradientUnits="userSpaceOnUse">
<stop stop-color="#FFC227"/>
<stop offset="1" stop-color="#FFB300"/>
</linearGradient>
<linearGradient id="paint1_linear_335_7391" x1="3" y1="8.33301" x2="3" y2="25.8752" gradientUnits="userSpaceOnUse">
<stop stop-color="#9FC7FF"/>
<stop offset="1" stop-color="#9BC1F5"/>
</linearGradient>
</defs>
</svg>
