<svg width="32" height="32" viewBox="0 0 32 32" fill="none" xmlns="http://www.w3.org/2000/svg">
<path fill-rule="evenodd" clip-rule="evenodd" d="M11.4359 27.1886C11.0723 28.1929 9.967 28.7097 8.96349 28.3385C7.95999 27.9746 7.44369 26.8683 7.81455 25.864C8.05452 25.1944 9.36344 24.1173 10.207 23.4695C10.5488 23.2075 11.0505 23.3895 11.1451 23.8116C11.3777 24.8523 11.6832 26.519 11.4359 27.1886Z" fill="#66AFEB"/>
<path fill-rule="evenodd" clip-rule="evenodd" d="M17.1859 27.1886C16.8223 28.1929 15.717 28.7097 14.7135 28.3385C13.71 27.9746 13.1937 26.8683 13.5646 25.864C13.8045 25.1944 15.1135 24.1173 15.957 23.4695C16.2988 23.2075 16.8005 23.3895 16.8951 23.8116C17.1277 24.8523 17.4332 26.519 17.1859 27.1886Z" fill="#66AFEB"/>
<path fill-rule="evenodd" clip-rule="evenodd" d="M22.9359 27.1886C22.5723 28.1929 21.467 28.7097 20.4635 28.3385C19.46 27.9746 18.9437 26.8683 19.3146 25.864C19.5545 25.1944 20.8635 24.1173 21.707 23.4695C22.0488 23.2075 22.5505 23.3895 22.6451 23.8116C22.8777 24.8523 23.1832 26.519 22.9359 27.1886Z" fill="#66AFEB"/>
<path fill-rule="evenodd" clip-rule="evenodd" d="M22.4235 9.66017C22.0546 9.66017 21.6928 9.69641 21.3456 9.76888C20.5787 6.73946 17.8513 4.5 14.5958 4.5C10.7471 4.5 7.62898 7.62364 7.62898 11.4793C7.62898 11.9721 7.67962 12.4577 7.7809 12.9288C7.73026 12.9288 7.67962 12.9215 7.62898 12.9215C5.37182 12.9215 3.5415 14.7551 3.5415 17.0163C3.5415 19.2775 5.24883 20.9807 7.40471 21.0966V21.1111H22.0329V21.0894C22.1631 21.0966 22.2933 21.1111 22.4235 21.1111C25.5777 21.1111 28.1388 18.5455 28.1388 15.3856C28.1388 12.2258 25.5777 9.66017 22.4235 9.66017Z" fill="url(#paint0_linear_335_7369)"/>
<defs>
<linearGradient id="paint0_linear_335_7369" x1="3.5415" y1="4.5" x2="3.5415" y2="21.1111" gradientUnits="userSpaceOnUse">
<stop stop-color="#9FC7FF"/>
<stop offset="1" stop-color="#9BC1F5"/>
</linearGradient>
</defs>
</svg>
