<svg width="32" height="32" viewBox="0 0 32 32" fill="none" xmlns="http://www.w3.org/2000/svg">
<mask id="mask0_335_7379" style="mask-type:luminance" maskUnits="userSpaceOnUse" x="3" y="3" width="26" height="26">
<path d="M28.6668 3.33301H3.3335V28.6663H28.6668V3.33301Z" fill="white"/>
</mask>
<g mask="url(#mask0_335_7379)">
<path d="M16.0005 23.8405C20.3311 23.8405 23.8418 20.3298 23.8418 15.9992C23.8418 11.6686 20.3311 8.15796 16.0005 8.15796C11.6699 8.15796 8.15918 11.6686 8.15918 15.9992C8.15918 20.3298 11.6699 23.8405 16.0005 23.8405Z" fill="url(#paint0_linear_335_7379)"/>
<path fill-rule="evenodd" clip-rule="evenodd" d="M21.3504 6.62712C21.0637 7.31962 20.2698 7.64854 19.5773 7.36178C18.8848 7.07502 18.5559 6.28117 18.8427 5.58865L19.4196 4.19545C19.7063 3.50295 20.5002 3.17403 21.1927 3.46079C21.8852 3.74755 22.2141 4.54141 21.9274 5.23391L21.3504 6.62712ZM13.1559 5.58918C13.4428 6.28162 13.114 7.07554 12.4216 7.36245C11.7291 7.64935 10.9352 7.32059 10.6483 6.62815L10.0711 5.23505C9.78426 4.54261 10.113 3.74869 10.8054 3.46179C11.4979 3.17488 12.2918 3.50364 12.5787 4.19609L13.1559 5.58918ZM25.3716 10.6478C24.6792 10.9347 24.3504 11.7286 24.6373 12.421C24.9242 13.1135 25.7181 13.4422 26.4106 13.1553L27.8037 12.5781C28.4961 12.2912 28.8249 11.4973 28.538 10.8049C28.2511 10.1124 27.4571 9.78368 26.7647 10.0706L25.3716 10.6478ZM5.58993 18.8441C6.28238 18.5572 7.0763 18.8859 7.3632 19.5784C7.6501 20.2708 7.32134 21.0647 6.6289 21.3516L5.23581 21.9288C4.54336 22.2157 3.74944 21.887 3.46254 21.1945C3.17564 20.5021 3.50439 19.7082 4.19684 19.4213L5.58993 18.8441ZM19.5791 24.6367C20.2716 24.3498 21.0655 24.6786 21.3524 25.371L21.9296 26.7641C22.2165 27.4565 21.8878 28.2505 21.1953 28.5374C20.5029 28.8243 19.709 28.4955 19.4221 27.8031L18.8448 26.41C18.5579 25.7175 18.8867 24.9236 19.5791 24.6367ZM12.4234 24.6376C13.1159 24.9243 13.4448 25.7182 13.158 26.4107L12.5811 27.8039C12.2944 28.4964 11.5005 28.8253 10.808 28.5385C10.1155 28.2518 9.78663 27.4579 10.0733 26.7654L10.6503 25.3722C10.937 24.6797 11.7309 24.3508 12.4234 24.6376ZM7.36251 12.4227C7.07575 13.1152 6.2819 13.4441 5.5894 13.1573L4.19619 12.5804C3.50368 12.2936 3.17476 11.4998 3.46152 10.8073C3.74829 10.1148 4.54214 9.78587 5.23464 10.0726L6.62785 10.6495C7.32036 10.9363 7.64928 11.7302 7.36251 12.4227ZM25.3728 21.3497C24.6803 21.0629 24.3514 20.269 24.6382 19.5765C24.9249 18.884 25.7188 18.5551 26.4113 18.8419L27.8045 19.4188C28.497 19.7056 28.8259 20.4994 28.5392 21.1919C28.2524 21.8844 27.4585 22.2133 26.766 21.9266L25.3728 21.3497Z" fill="url(#paint1_linear_335_7379)"/>
</g>
<defs>
<linearGradient id="paint0_linear_335_7379" x1="8.26373" y1="8.15796" x2="8.26373" y2="23.6314" gradientUnits="userSpaceOnUse">
<stop stop-color="#FFC227"/>
<stop offset="1" stop-color="#FFB300"/>
</linearGradient>
<linearGradient id="paint1_linear_335_7379" x1="3.52648" y1="3.35718" x2="3.52648" y2="28.305" gradientUnits="userSpaceOnUse">
<stop stop-color="#FFC227"/>
<stop offset="1" stop-color="#FFB300"/>
</linearGradient>
</defs>
</svg>
